<?xml version="1.0" encoding="utf-8"?>
<!-- Generator: Adobe Illustrator 27.9.5, SVG Export Plug-In . SVG Version: 9.03 Build 54986)  -->
<svg version="1.1" id="Capa_1" xmlns="http://www.w3.org/2000/svg" xmlns:xlink="http://www.w3.org/1999/xlink" x="0px" y="0px"
	 viewBox="0 0 100 100" style="enable-background:new 0 0 100 100;" xml:space="preserve">
<style type="text/css">
	.st0{fill:#010202;}
</style>
<path d="M66.87,31.58v-8.52c0,0-2.83-0.5-7.02-0.9c0.01-0.14,0.02-0.27,0.02-0.41c0-5.39-4.39-9.78-9.78-9.78
	c-5.39,0-9.78,4.39-9.78,9.78c0,0.12,0.01,0.23,0.02,0.35c-4.46,0.41-7.24,0.95-7.24,0.95v8.6c-0.42,1.27-5.68,16.78-14.98,23.15
	c11.47,5.96,14.9,22.7,15,23.22h-0.03v8.59c0,0,7.92,1.4,16.88,1.4c9.76,0,16.88-1.4,16.88-1.4v-8.57h0.03
	c0,0,3.36-17.19,15.01-23.25C72.25,48.21,66.94,31.79,66.87,31.58z M56.31,54.82c-6.75,5.86-6.31,22.73-6.3,23.22h-0.04
	c0.01-0.49,0.46-17.36-6.29-23.22c5.87-5.28,6.27-21.83,6.29-23.15h0.04C50.04,32.99,50.44,49.54,56.31,54.82z M43.15,21.76
	c0-3.83,3.12-6.95,6.95-6.95c3.83,0,6.95,3.12,6.95,6.95c0,0.06-0.01,0.11-0.01,0.17c-2.18-0.15-4.57-0.26-7.05-0.26
	c-2.47,0-4.77,0.09-6.83,0.22C43.16,21.84,43.15,21.8,43.15,21.76z M27.59,54.82c7.64-3.49,13.18-21.11,13.78-23.06
	c0.15,1.76,1.09,15.72-5.97,23.06c6.67,5.85,6.05,22.2,6.01,23.2C41.08,77.01,35.19,58.53,27.59,54.82z M58.59,78.04L58.59,78.04
	c-0.03-0.52-0.77-17.27,6.01-23.22c-7.22-7.5-6.12-21.92-6.01-23.15h0.03c0.42,1.39,6.03,19.59,13.8,23.15
	C64.71,58.58,58.75,77.52,58.59,78.04z"/>
<path class="st0" d="M71.52,54.9c-6.23-3.59-10.88-15.75-12.61-20.86c-0.08,4.58,0.42,14.75,6,20.56l0.31,0.32l-0.33,0.29
	c-5.09,4.47-5.83,15.42-5.89,20.38C60.83,70.42,65.55,58.54,71.52,54.9z"/>
<path class="st0" d="M28.47,54.9c6.23-3.59,10.88-15.75,12.61-20.86c0.08,4.58-0.42,14.75-6,20.56l-0.31,0.32l0.33,0.29
	c5.09,4.47,5.83,15.42,5.89,20.38C39.16,70.42,34.44,58.54,28.47,54.9z"/>
<path class="st0" d="M49.98,37.84c-0.59,5.56-2.06,13.32-5.69,16.96c3.6,3.43,5.09,9.89,5.7,15.13c0.05-0.44,0.11-0.88,0.17-1.33
	c0.93-6.56,2.78-11.2,5.52-13.8C52.05,51.17,50.58,43.4,49.98,37.84z"/>
<path d="M242.53,33.49h-33.78v-8.6c0,0,7.12-1.4,16.89-1.4c8.97,0,16.89,1.4,16.89,1.4V33.49z"/>
<path d="M242.53,79.89h-8.29c0,0,6.01-19.42,13.83-23.25c-8.09-3.7-13.83-23.25-13.83-23.25h8.29c0,0,5.31,16.6,15.01,23.25
	C245.89,62.7,242.53,79.89,242.53,79.89z"/>
<path d="M217.05,79.89l8.57,0c0,0,0.56-17.3-6.29-23.24c6.12-5.5,6.29-23.25,6.29-23.25H217c0,0,1.59,15.4-5.95,23.25
	C217.93,62.68,217.05,79.89,217.05,79.89z"/>
<path d="M234.25,79.89l-8.58,0c0,0-0.55-17.3,6.3-23.24c-6.12-5.5-6.3-23.25-6.3-23.25h8.58c0,0-1.53,15.4,6.01,23.25
	C233.37,62.68,234.25,79.89,234.25,79.89z"/>
<path d="M225.75,33.37c-5.39,0-9.78-4.39-9.78-9.78s4.39-9.78,9.78-9.78c5.39,0,9.78,4.39,9.78,9.78S231.15,33.37,225.75,33.37z
	 M225.75,16.64c-3.83,0-6.95,3.12-6.95,6.95s3.12,6.95,6.95,6.95c3.83,0,6.95-3.12,6.95-6.95S229.58,16.64,225.75,16.64z"/>
<path d="M208.75,79.86h33.75v8.59c0,0-7.12,1.4-16.88,1.4c-8.96,0-16.88-1.4-16.88-1.4V79.86z"/>
<path d="M208.79,79.89h8.29c0,0-6.01-19.42-13.83-23.25c8.09-3.7,13.83-23.25,13.83-23.25h-8.29c0,0-5.31,16.6-15.01,23.25
	C205.43,62.7,208.79,79.89,208.79,79.89z"/>
<path class="st0" d="M247.18,56.73c-6.23-3.59-10.88-15.75-12.61-20.86c-0.08,4.58,0.42,14.75,6,20.56l0.31,0.32l-0.33,0.29
	c-5.09,4.47-5.83,15.42-5.89,20.38C236.48,72.25,241.21,60.37,247.18,56.73z"/>
<path class="st0" d="M204.13,56.73c6.23-3.59,10.88-15.75,12.61-20.86c0.08,4.58-0.42,14.75-6,20.56l-0.31,0.32l0.33,0.29
	c5.09,4.47,5.83,15.42,5.89,20.38C214.82,72.25,210.09,60.37,204.13,56.73z"/>
<path class="st0" d="M225.64,39.67c-0.59,5.56-2.06,13.32-5.69,16.96c3.6,3.43,5.09,9.89,5.7,15.13c0.05-0.44,0.11-0.88,0.17-1.33
	c0.93-6.56,2.78-11.2,5.52-13.8C227.71,53,226.24,45.23,225.64,39.67z"/>
</svg>
