<?xml version="1.0" encoding="UTF-8"?>
<!DOCTYPE svg PUBLIC "-//W3C//DTD SVG 1.1//EN" "http://www.w3.org/Graphics/SVG/1.1/DTD/svg11.dtd">
<svg xmlns="http://www.w3.org/2000/svg" version="1.1" width="82px" height="34px" style="shape-rendering:geometricPrecision; text-rendering:geometricPrecision; image-rendering:optimizeQuality; fill-rule:evenodd; clip-rule:evenodd" xmlns:xlink="http://www.w3.org/1999/xlink">
<g><path style="opacity:1" fill="#fefffe" d="M 26.5,22.5 C 27.0023,25.8406 28.3356,28.8406 30.5,31.5C 21.8333,32.8333 13.1667,32.8333 4.5,31.5C 2.78663,30.1218 1.4533,28.4552 0.5,26.5C 1.19137,24.1088 2.19137,24.1088 3.5,26.5C 5.16667,24.8333 6.83333,23.1667 8.5,21.5C 7.16667,20.1667 5.83333,18.8333 4.5,17.5C 5.83333,16.8333 7.16667,16.1667 8.5,15.5C 7.16667,14.1667 5.83333,12.8333 4.5,11.5C 6.5,10.8333 8.5,10.1667 10.5,9.5C 9.16667,8.16667 7.83333,6.83333 6.5,5.5C 10.8519,5.17413 14.5186,3.50746 17.5,0.5C 20.8333,3.16667 24.1667,5.83333 27.5,8.5C 28.5,11.5 29.5,14.5 30.5,17.5C 30.2225,20.1021 28.8892,21.7688 26.5,22.5 Z M 18.5,8.5 C 19.7479,9.3339 20.4146,10.6672 20.5,12.5C 20.1667,13.8333 19.8333,15.1667 19.5,16.5C 18.52,13.9135 18.1866,11.2469 18.5,8.5 Z M 24.5,10.5 C 25.6935,10.9704 26.3601,11.9704 26.5,13.5C 26.1667,14.5 25.8333,15.5 25.5,16.5C 24.5344,14.604 24.2011,12.604 24.5,10.5 Z M 18.5,22.5 C 17.8333,22.5 17.1667,22.5 16.5,22.5C 17.1667,19.8333 17.8333,19.8333 18.5,22.5 Z M 22.5,22.5 C 21.8333,22.5 21.1667,22.5 20.5,22.5C 21.1667,19.8333 21.8333,19.8333 22.5,22.5 Z M 26.5,22.5 C 25.8333,22.5 25.1667,22.5 24.5,22.5C 25.1667,19.8333 25.8333,19.8333 26.5,22.5 Z M 16.5,22.5 C 16.3605,24.337 15.6939,24.6704 14.5,23.5C 14.9569,22.7025 15.6236,22.3691 16.5,22.5 Z M 18.5,22.5 C 19.1667,22.5 19.8333,22.5 20.5,22.5C 19.8333,25.1667 19.1667,25.1667 18.5,22.5 Z M 22.5,22.5 C 23.1667,22.5 23.8333,22.5 24.5,22.5C 23.8333,25.1667 23.1667,25.1667 22.5,22.5 Z"/></g>
<g><path style="opacity:1" fill="#fefffe" d="M 42.5,8.5 C 40.5,8.5 38.5,8.5 36.5,8.5C 36.5,9.83333 36.5,11.1667 36.5,12.5C 38.5,12.5 40.5,12.5 42.5,12.5C 41.8333,13.8333 41.1667,15.1667 40.5,16.5C 39.2652,16.2786 38.2652,15.6119 37.5,14.5C 36.8333,16.5 36.1667,18.5 35.5,20.5C 34.5067,15.8804 34.1734,11.2137 34.5,6.5C 37.6981,5.96438 40.3647,6.63105 42.5,8.5 Z"/></g>
<g><path style="opacity:1" fill="#fefffe" d="M 52.5,8.5 C 51.8333,8.5 51.1667,8.5 50.5,8.5C 51.1667,5.83333 51.8333,5.83333 52.5,8.5 Z"/></g>
<g><path style="opacity:1" fill="#fefffe" d="M 60.5,18.5 C 59.2057,16.9522 58.5391,14.9522 58.5,12.5C 58.8333,10.5 59.1667,8.5 59.5,6.5C 60.4909,10.4454 60.8242,14.4454 60.5,18.5 Z"/></g>
<g><path style="opacity:1" fill="#fefffe" d="M 64.5,18.5 C 63.8333,18.5 63.1667,18.5 62.5,18.5C 63.1667,2.5 63.8333,2.5 64.5,18.5 Z"/></g>
<g><path style="opacity:1" fill="#fefffe" d="M 66.5,18.5 C 66.1758,14.4454 66.5091,10.4454 67.5,6.5C 67.8333,8.5 68.1667,10.5 68.5,12.5C 68.4609,14.9522 67.7943,16.9522 66.5,18.5 Z"/></g>
<g><path style="opacity:1" fill="#fefffe" d="M 78.5,8.5 C 76.5,8.5 74.5,8.5 72.5,8.5C 72.9704,7.30652 73.9704,6.63985 75.5,6.5C 77.0296,6.63985 78.0296,7.30652 78.5,8.5 Z"/></g>
<g><path style="opacity:1" fill="#fefffe" d="M 42.5,8.5 C 43.5862,8.61998 44.2528,9.28665 44.5,10.5C 44.2528,11.7133 43.5862,12.38 42.5,12.5C 42.5,11.1667 42.5,9.83333 42.5,8.5 Z"/></g>
<g><path style="opacity:1" fill="#fefffe" d="M 50.5,8.5 C 50.5,9.83333 49.8333,10.5 48.5,10.5C 48.5,9.16667 49.1667,8.5 50.5,8.5 Z"/></g>
<g><path style="opacity:1" fill="#fefffe" d="M 52.5,8.5 C 53.8333,8.5 54.5,9.16667 54.5,10.5C 54.5,9.16667 53.8333,8.5 52.5,8.5 Z"/></g>
<g><path style="opacity:1" fill="#fefffe" d="M 72.5,8.5 C 72.5,9.83333 72.5,11.1667 72.5,12.5C 71.4138,12.38 70.7472,11.7133 70.5,10.5C 70.7472,9.28665 71.4138,8.61998 72.5,8.5 Z"/></g>
<g><path style="opacity:1" fill="#fefffe" d="M 78.5,8.5 C 80.337,8.63945 80.6704,9.30612 79.5,10.5C 78.7025,10.0431 78.3691,9.37644 78.5,8.5 Z"/></g>
<g><path style="opacity:1" fill="#fefffe" d="M 48.5,10.5 C 48.5,11.8333 48.5,13.1667 48.5,14.5C 50.5,14.5 52.5,14.5 54.5,14.5C 54.5,13.1667 54.5,11.8333 54.5,10.5C 55.7773,11.6936 56.4439,13.3603 56.5,15.5C 56.1667,17.1667 55.8333,18.8333 55.5,20.5C 54.5713,19.3112 54.238,17.9778 54.5,16.5C 52.5,16.5 50.5,16.5 48.5,16.5C 48.762,17.9778 48.4287,19.3112 47.5,20.5C 47.1667,18.8333 46.8333,17.1667 46.5,15.5C 46.5561,13.3603 47.2227,11.6936 48.5,10.5 Z"/></g>
<g><path style="opacity:1" fill="#fefffe" d="M 72.5,12.5 C 75.0821,12.0254 77.0821,12.6921 78.5,14.5C 75.9179,14.9746 73.9179,14.3079 72.5,12.5 Z"/></g>
<g><path style="opacity:1" fill="#fefffe" d="M 78.5,14.5 C 79.5862,14.62 80.2528,15.2867 80.5,16.5C 80.2528,17.7133 79.5862,18.38 78.5,18.5C 78.5,17.1667 78.5,15.8333 78.5,14.5 Z"/></g>
<g><path style="opacity:1" fill="#fefffe" d="M 40.5,16.5 C 41.8333,16.5 42.5,17.1667 42.5,18.5C 42.5,17.1667 41.8333,16.5 40.5,16.5 Z"/></g>
<g><path style="opacity:1" fill="#fefffe" d="M 72.5,18.5 C 70.663,18.3605 70.3296,17.6939 71.5,16.5C 72.2975,16.9569 72.6309,17.6236 72.5,18.5 Z"/></g>
<g><path style="opacity:1" fill="#fefffe" d="M 42.5,18.5 C 44.337,18.6395 44.6704,19.3061 43.5,20.5C 42.7025,20.0431 42.3691,19.3764 42.5,18.5 Z"/></g>
<g><path style="opacity:1" fill="#fefffe" d="M 60.5,18.5 C 61.1667,18.5 61.8333,18.5 62.5,18.5C 61.8333,21.1667 61.1667,21.1667 60.5,18.5 Z"/></g>
<g><path style="opacity:1" fill="#fefffe" d="M 64.5,18.5 C 65.1667,18.5 65.8333,18.5 66.5,18.5C 65.8333,21.1667 65.1667,21.1667 64.5,18.5 Z"/></g>
<g><path style="opacity:1" fill="#fefffe" d="M 72.5,18.5 C 74.5,18.5 76.5,18.5 78.5,18.5C 78.0296,19.6935 77.0296,20.3601 75.5,20.5C 73.9704,20.3601 72.9704,19.6935 72.5,18.5 Z"/></g>
<g><path style="opacity:1" fill="#fefffe" d="M 36.5,23.5 C 39.5983,23.4125 39.9316,23.9125 37.5,25C 40.1667,25.6667 40.1667,26.3333 37.5,27C 39.9316,28.0875 39.5983,28.5875 36.5,28.5C 36.5,26.8333 36.5,25.1667 36.5,23.5 Z"/></g>
<g><path style="opacity:1" fill="#fefffe" d="M 40.5,23.5 C 41.1031,25.1897 42.1031,26.6897 43.5,28C 42.552,28.4828 41.552,28.6495 40.5,28.5C 40.5,26.8333 40.5,25.1667 40.5,23.5 Z"/></g>
<g><path style="opacity:1" fill="#fefffe" d="M 44.5,23.5 C 47.5983,23.4125 47.9316,23.9125 45.5,25C 48.1667,25.6667 48.1667,26.3333 45.5,27C 47.9316,28.0875 47.5983,28.5875 44.5,28.5C 44.5,26.8333 44.5,25.1667 44.5,23.5 Z"/></g>
<g><path style="opacity:1" fill="#fefffe" d="M 48.5,23.5 C 52.0562,23.2749 52.3895,24.1082 49.5,26C 52.3895,27.8918 52.0562,28.7251 48.5,28.5C 48.5,26.8333 48.5,25.1667 48.5,23.5 Z"/></g>
<g><path style="opacity:1" fill="#fefffe" d="M 52.5,24.5 C 53.2506,23.4265 54.2506,23.2599 55.5,24C 54.7734,25.3988 54.2734,26.8988 54,28.5C 53.79,26.9419 53.29,25.6085 52.5,24.5 Z"/></g>
<g><path style="opacity:1" fill="#fefffe" d="M 58.5,26.5 C 57.7784,26.9175 57.2784,27.5842 57,28.5C 56.5065,26.8659 56.3398,25.1992 56.5,23.5C 59.2476,23.4017 59.9143,24.4017 58.5,26.5 Z"/></g>
<g><path style="opacity:1" fill="#fefffe" d="M 60.5,23.5 C 61.5,23.5 62.5,23.5 63.5,23.5C 63.5,25.1667 63.5,26.8333 63.5,28.5C 62.5,28.5 61.5,28.5 60.5,28.5C 60.5,26.8333 60.5,25.1667 60.5,23.5 Z"/></g>
<g><path style="opacity:1" fill="#fefffe" d="M 66.5,25.5 C 65.7321,26.2625 65.2321,27.2625 65,28.5C 64.3333,26.8333 64.3333,25.1667 65,23.5C 65.7172,24.0442 66.2172,24.7109 66.5,25.5 Z"/></g>
<g><path style="opacity:1" fill="#fefffe" d="M 66.5,25.5 C 67.2216,25.0825 67.7216,24.4158 68,23.5C 68.8364,28.3233 68.3364,28.99 66.5,25.5 Z"/></g>
<g><path style="opacity:1" fill="#fefffe" d="M 69.5,23.5 C 70.6129,24.9464 70.7796,26.6131 70,28.5C 69.5065,26.8659 69.3398,25.1992 69.5,23.5 Z"/></g>
<g><path style="opacity:1" fill="#fefffe" d="M 71.5,23.5 C 75.0562,23.2749 75.3895,24.1082 72.5,26C 75.3895,27.8918 75.0562,28.7251 71.5,28.5C 71.5,26.8333 71.5,25.1667 71.5,23.5 Z"/></g>
<g><path style="opacity:1" fill="#fefffe" d="M 76.5,24.5 C 77.2506,23.4265 78.2506,23.2599 79.5,24C 78.552,24.4828 77.552,24.6495 76.5,24.5 Z"/></g>
<g><path style="opacity:1" fill="#fefffe" d="M 76.5,24.5 C 76.5,24.8333 76.5,25.1667 76.5,25.5C 75.8299,25.0187 75.8299,24.6853 76.5,24.5 Z"/></g>
<g><path style="opacity:1" fill="#fefffe" d="M 76.5,25.5 C 77.4916,25.3284 78.1583,25.6618 78.5,26.5C 77.5084,26.6716 76.8417,26.3382 76.5,25.5 Z"/></g>
<g><path style="opacity:1" fill="#fefffe" d="M 58.5,26.5 C 59.525,26.8966 59.6917,27.5632 59,28.5C 58.5357,27.9056 58.369,27.2389 58.5,26.5 Z"/></g>
<g><path style="opacity:1" fill="#fefffe" d="M 78.5,26.5 C 79.8333,27.1667 79.8333,27.1667 78.5,26.5 Z"/></g>
<g><path style="opacity:1" fill="#fefffe" d="M 78.5,27.5 C 77.7494,28.5735 76.7494,28.7401 75.5,28C 76.448,27.5172 77.448,27.3505 78.5,27.5 Z"/></g>
</svg>
